PathFileType	4	(X/Y/Z)	C:\Users\Basilio\Documents\Thesis Gigler\squatting_fais\c3dfiles\039\SLS_pre_back1\markers_experimental.trc
DataRate	CameraRate	NumFrames	NumMarkers	Units	OrigDataRate	OrigDataStartFrame	OrigNumFrames
200.000000	200.000000	4	63	mm	200.000000	1109	1775
Frame#	Time	FHD			LBHD			RBHD			C7			T10			CLAV			LSHO			LUUPA			LMUPA			LDUPA			LLEP			LMEP			LRAD			LUL			LRFIN			RSHO			RUPA1			RMUPA			RDUPA			RLEP			RMEP			RRAD			RUL			RUFIN			LASI			RASI			USACR			LSACR			RSACR			LTHI1			LTHI2			LTHI3			LTHI4			LLFC			LMFC			LTIB1			LTIB2			LTIB3			LTIB4			LLMAL			LMMAL			LHEE			LMT1			LMT2			LMT5			RTHI			RTHI2			RTHI3			RTHI4			RLFC			RMFC			RTIB1			RTIB2			RTIB3			RTIB4			RLMAL			RMMAL			RHEE			RMT1			RMT2			RMT5			*61			*62			
		X1	Y1	Z1	X2	Y2	Z2	X3	Y3	Z3	X4	Y4	Z4	X5	Y5	Z5	X6	Y6	Z6	X7	Y7	Z7	X8	Y8	Z8	X9	Y9	Z9	X10	Y10	Z10	X11	Y11	Z11	X12	Y12	Z12	X13	Y13	Z13	X14	Y14	Z14	X15	Y15	Z15	X16	Y16	Z16	X17	Y17	Z17	X18	Y18	Z18	X19	Y19	Z19	X20	Y20	Z20	X21	Y21	Z21	X22	Y22	Z22	X23	Y23	Z23	X24	Y24	Z24	X25	Y25	Z25	X26	Y26	Z26	X27	Y27	Z27	X28	Y28	Z28	X29	Y29	Z29	X30	Y30	Z30	X31	Y31	Z31	X32	Y32	Z32	X33	Y33	Z33	X34	Y34	Z34	X35	Y35	Z35	X36	Y36	Z36	X37	Y37	Z37	X38	Y38	Z38	X39	Y39	Z39	X40	Y40	Z40	X41	Y41	Z41	X42	Y42	Z42	X43	Y43	Z43	X44	Y44	Z44	X45	Y45	Z45	X46	Y46	Z46	X47	Y47	Z47	X48	Y48	Z48	X49	Y49	Z49	X50	Y50	Z50	X51	Y51	Z51	X52	Y52	Z52	X53	Y53	Z53	X54	Y54	Z54	X55	Y55	Z55	X56	Y56	Z56	X57	Y57	Z57	X58	Y58	Z58	X59	Y59	Z59	X60	Y60	Z60	X61	Y61	Z61	X62	Y62	Z62	X63	Y63	Z63	

1110	5.545	-80.76065063476564	1457.743896484375	-688.2636108398439	-242.7541961669922	1447.858154296875	-806.5579833984377	-213.1362304687501	1450.615356445313	-668.0215454101564	-307.5039367675782	1303.74853515625	-741.3468017578126	-430.0156860351564	1033.37255859375	-772.1646118164065	nan	nan	nan	-240.1430206298829	1308.735595703125	-891.7406005859377	-79.98876190185548	1260.154663085938	-1000.659729003906	-55.5218963623047	1288.945434570313	-968.442565917969	-10.39068222045899	1263.557006835938	-998.2200927734377	56.77040100097658	1266.402709960938	-991.522399902344	55.03870773315431	1195.136840820313	-958.672790527344	334.1496887207032	1275.220581054688	-894.6987304687502	336.4448547363282	1282.360595703125	-970.671813964844	411.4801635742189	1316.784423828125	-886.6940917968752	-193.5987091064454	1286.694580078125	-590.9244995117189	-40.56888961791993	1205.984130859375	-503.0007324218751	-11.46830463409424	1238.931396484375	-527.0171508789064	29.91009902954102	1199.847412109375	-506.385467529297	93.1952590942383	1211.254638671875	-521.0522460937501	92.25762176513673	1144.940551757813	-562.9979858398439	373.1636352539063	1248.33935546875	-632.7765502929689	381.5973205566407	1235.839477539063	-558.2577514648439	454.8039855957032	1289.565185546875	-633.8369140625001	-364.2561340332032	810.038269042969	-902.5126953125002	-338.7628173828126	817.7735595703127	-683.5878906250001	-507.3687438964845	918.143981933594	-775.7719726562502	-524.9617919921876	888.9683227539065	-800.6646728515627	-519.4324340820314	890.601257324219	-741.6761474609376	-405.7651977539064	558.2495117187501	-1000.6904296875	-358.4730529785157	488.8109130859376	-1019.121459960938	-311.3576660156251	495.3233337402345	-1013.018920898438	-374.6715393066407	428.7529296875001	-1007.522705078125	-355.7268981933594	348.7309265136719	-1005.920471191406	-325.9564819335938	300.8738708496094	-900.0950317382815	-449.6187744140626	256.2805786132813	-966.3773193359377	-502.699676513672	326.2454223632813	-989.3184814453127	-501.7583007812501	283.6827697753907	-978.658630371094	-567.7203979492189	275.9702453613282	-922.4069824218752	-750.3250732421876	328.2162170410157	-903.8942871093752	-712.6008911132814	309.0155029296876	-827.765319824219	-752.0493164062501	402.5115051269532	-863.2141113281252	-804.0274658203127	187.1402893066407	-784.742858886719	-833.2551879882815	191.4759826660157	-817.2778930664065	-874.1629638671877	241.0332641601563	-846.5130615234377	-265.5148010253907	618.4698486328126	-622.8243408203126	-199.3226470947266	608.4460449218751	-628.1353149414064	-178.7519683837891	633.5240478515626	-637.0630493164064	-163.5890197753907	532.2372436523439	-640.9465332031251	-120.6288604736328	433.2379760742189	-685.7648925781251	-103.1639175415039	450.7332763671876	-797.5572509765627	-174.9049987792969	253.6673278808594	-742.2012329101564	-279.1524353027344	233.5457763671876	-721.7105712890626	-243.7902526855469	206.8461151123047	-736.2644042968751	-256.9284973144532	164.1385345458985	-776.7175903320315	-358.2210083007813	115.8140258789063	-751.6384277343751	-335.7921142578126	129.288558959961	-840.406188964844	-441.0720520019532	98.10480499267581	-798.7644042968752	-215.6936035156251	49.40370941162111	-812.8235473632815	-218.6606903076172	57.51932907104494	-766.6322631835939	-273.1462707519532	41.9012565612793	-714.0681152343751	nan	nan	nan	nan	nan	nan	
1111	5.55	-80.75384521484376	1457.686645507813	-688.3311157226564	-242.7874908447266	1447.834594726563	-806.4624633789065	-213.0894317626954	1450.524536132813	-668.0184936523439	-307.4905700683594	1303.634399414063	-741.3577880859376	-430.0045471191407	1033.289306640625	-772.1206665039065	nan	nan	nan	-240.1925201416016	1308.689208984375	-891.7274169921877	-79.96144866943361	1260.0634765625	-1000.615661621094	-55.51588439941408	1288.818603515625	-968.4520263671877	-10.43193912506104	1263.42578125	-998.2524414062502	56.69244766235353	1266.199096679688	-991.5835571289065	54.52153396606447	1195.497314453125	-958.849792480469	334.0944824218751	1275.052612304688	-894.6789550781252	336.4114685058594	1282.219482421875	-970.7290649414065	411.4094238281251	1316.6806640625	-886.7225341796877	-193.8231658935547	1286.4443359375	-591.2109375000001	-40.46839141845704	1205.810180664063	-503.170379638672	-11.40552425384522	1238.849853515625	-527.0922241210939	29.94632148742676	1199.70654296875	-506.4445800781251	93.27976989746095	1211.210327148438	-521.0410766601564	92.37304687500001	1144.9306640625	-563.0982055664064	373.2720947265626	1248.377319335938	-632.8145141601564	381.7019958496094	1235.89794921875	-558.2519531250001	454.8956909179689	1289.616455078125	-633.8759765625001	-364.3457641601563	809.9903564453127	-902.5698242187502	-338.6755676269532	817.6676025390627	-683.5648803710939	-507.3304443359376	918.0789184570315	-775.6761474609377	-524.9677124023439	888.9187622070315	-800.516052246094	-519.4515380859376	890.5162353515627	-741.5534057617189	-406.0192260742189	558.1713867187501	-1000.7373046875	-358.7526550292969	488.6883544921876	-1019.216613769531	-311.5953063964844	495.2483520507814	-1013.071228027344	-374.9041137695313	428.6776733398439	-1007.527709960938	-356.0095214843751	348.6389465332032	-1006.000305175781	-326.1113891601563	300.7351074218751	-900.2226562500002	-449.9154052734376	256.1867980957032	-966.429626464844	-502.9874572753907	326.1645507812501	-989.2854003906252	-501.9212036132814	283.5809326171876	-978.5341796875002	-567.8652954101564	275.8923339843751	-922.3599243164065	-750.5687866210939	328.1102600097657	-903.7396240234377	-712.5119018554689	308.1137695312501	-827.909851074219	-752.3176879882814	402.4150695800782	-863.054870605469	-804.0166625976565	186.965576171875	-784.4356689453127	-833.2542724609377	191.2957611083985	-817.068542480469	-874.3054809570315	240.7930603027344	-846.1226196289065	-265.3598632812501	618.4008178710939	-622.9344482421876	-199.1277160644532	608.4255981445314	-628.2720947265626	-178.6390533447266	633.4678955078126	-637.2498168945314	-163.4312133789063	532.1367187500001	-641.1092529296876	-120.5070266723633	433.2119445800782	-686.0103149414064	-103.1023025512696	450.7364501953126	-797.7388916015627	-174.8977355957032	253.6685333251954	-742.3197631835939	-279.0525207519532	233.5100708007813	-721.8339843750001	-243.7457427978516	206.844955444336	-736.3723754882814	-256.9199218750001	164.1869506835938	-776.8618164062502	-358.2321777343751	115.8333740234375	-751.6412963867189	-335.8161621093751	129.2488708496094	-840.4616699218752	-441.0840454101564	98.08603668212893	-798.755798339844	-215.6863861083985	49.35157394409181	-812.838562011719	-218.6259307861329	57.52092742919923	-766.6728515625001	-273.1664123535157	41.97319030761719	-714.1256103515626	nan	nan	nan	nan	nan	nan	
1112	5.555	-80.69648742675783	1457.673583984375	-688.2573242187501	-242.7012939453126	1447.77734375	-806.5070800781252	-213.1019744873047	1450.357299804688	-667.9898071289064	-307.4727172851563	1303.524291992188	-741.3062744140626	-430.0007629394532	1033.195922851563	-772.0506591796877	nan	nan	nan	-239.9004058837891	1308.416748046875	-891.7000122070315	-80.0854949951172	1259.865600585938	-1000.684631347656	-55.59538650512697	1288.687622070313	-968.4910888671877	-10.55132865905762	1263.316162109375	-998.2829589843752	56.6338577270508	1266.15087890625	-991.645202636719	54.41919326782228	1195.395874023438	-958.8511962890627	334.0499877929688	1274.899291992188	-894.7138671875002	336.3385620117188	1282.084228515625	-970.780700683594	411.3750915527345	1316.483520507813	-886.725769042969	-193.7682495117188	1286.33056640625	-591.1987304687501	-40.42921829223634	1205.718017578125	-503.2151794433595	-11.32759952545166	1238.741455078125	-527.0799560546876	30.17333602905274	1199.668212890625	-506.388397216797	93.41297149658205	1211.1552734375	-521.1497192382814	92.52789306640626	1144.879272460938	-563.1817626953126	373.3580322265626	1248.456665039063	-632.7985839843751	381.7171630859376	1235.935913085938	-558.2601928710939	454.9822387695314	1289.720947265625	-633.8991088867189	-364.4064025878907	809.9029541015627	-902.5883789062502	-338.6154785156251	817.582946777344	-683.5498657226564	-507.312957763672	917.9786376953127	-775.5400390625002	-524.9429931640626	888.809753417969	-800.4012451171877	-519.4330444335939	890.4485473632815	-741.4060668945314	-406.2671813964845	558.1030273437501	-1000.702819824219	-359.0087585449219	488.6043395996095	-1019.277282714844	-311.8597106933594	495.2043762207032	-1013.133239746094	-375.7327270507813	428.9921875000001	-1007.583801269531	-356.3409118652344	348.6184997558594	-1006.041198730469	-326.3597412109376	300.6775207519532	-900.2944946289065	-450.2932739257814	256.1977844238282	-966.4754638671877	-502.0918579101564	325.3814086914063	-988.8853759765627	-502.1915893554689	283.4848327636719	-978.5310668945315	-568.1055297851564	275.8281860351563	-922.3336181640627	-750.7877807617189	327.9824829101563	-903.538269042969	-712.6362304687501	307.9696044921876	-827.7546997070315	-752.6698608398439	402.2408752441407	-862.8236083984377	-804.0504150390627	186.7027893066407	-784.0783691406252	-833.3467407226565	191.1161804199219	-816.8977050781252	-874.5615234375002	240.5811004638672	-845.8780517578127	-265.1772460937501	618.3836669921876	-623.0051879882814	-198.9496154785157	608.3518066406251	-628.4667358398439	-178.512451171875	633.4978637695314	-637.3474121093751	-163.3499298095703	532.2337646484376	-641.2208862304689	-120.4647369384766	433.1827087402345	-686.1850585937501	-103.1240386962891	450.7533264160157	-797.8696289062502	-174.846923828125	253.6975250244141	-742.4934692382814	-278.9923706054688	233.5102996826172	-721.9118652343751	-243.6888732910157	206.7728271484376	-736.5242309570314	-256.8632812500001	164.108871459961	-776.9793701171877	-358.1678466796876	115.7952499389649	-751.6994018554689	-335.8647460937501	129.2265625	-840.5520019531252	-441.069061279297	98.10164642333987	-798.7504882812502	-215.6505889892579	49.35660552978517	-812.8605957031252	-218.6227416992188	57.51333618164064	-766.6823120117189	-273.1350402832032	42.05504989624024	-714.1567993164064	nan	nan	nan	nan	nan	nan	
1113	5.56	-80.7224807739258	1457.630493164063	-688.2819824218751	-242.687484741211	1447.722900390625	-806.4921875000002	-213.026107788086	1450.252197265625	-667.9252319335939	-307.4270019531251	1303.455810546875	-741.2910156250001	-430.0663146972657	1033.14794921875	-771.9677734375002	nan	nan	nan	-240.005355834961	1308.3876953125	-891.6626586914065	-80.06851196289064	1259.7783203125	-1000.727478027344	-55.61850357055665	1288.63720703125	-968.5404052734377	-10.64789485931397	1263.281494140625	-998.3106689453127	56.59547424316408	1265.985961914063	-991.744079589844	54.7821388244629	1194.788330078125	-958.823669433594	334.0166320800782	1274.704223632813	-894.7039184570315	336.2912902832032	1281.947143554688	-970.8123168945315	411.261688232422	1316.439331054688	-886.8020629882815	-193.6244812011719	1286.173095703125	-591.2130737304689	-40.43591308593751	1205.677978515625	-503.2836914062501	-11.26026153564453	1238.671264648438	-527.1237182617189	30.19466781616212	1199.644165039063	-506.4775390625001	93.50807952880861	1211.115600585938	-521.1589965820314	92.59987640380861	1144.878051757813	-563.2526245117189	373.4224548339844	1248.516845703125	-632.8062744140626	381.8385314941407	1235.952026367188	-558.3258056640626	455.062469482422	1289.829223632813	-633.9131469726564	-364.4386596679688	809.8457641601565	-902.6047363281252	-338.5668945312501	817.5397949218752	-683.5715942382814	-507.294158935547	917.8996582031252	-775.4373168945315	-524.8987426757814	888.7276611328127	-800.275573730469	-519.4751586914064	890.3258056640627	-741.2911987304689	-406.4835205078126	558.0377807617189	-1000.656860351563	-359.2693481445313	488.5487365722657	-1019.309387207031	-312.1169433593751	495.0928344726564	-1013.184509277344	-375.4522705078126	428.5090637207032	-1007.581420898438	-356.6323547363282	348.6282958984376	-1006.057373046875	-326.6097412109376	300.6451721191407	-900.4125976562502	-450.6152343750001	256.1321716308594	-966.6003417968752	-502.3712463378907	325.3732604980469	-988.812194824219	-502.4667968750001	283.3816528320313	-978.5132446289065	-568.3480224609376	275.7485351562501	-922.2771606445315	-751.0940551757814	327.8454284667969	-903.3218383789065	-712.9886474609376	308.2243957519532	-827.482360839844	-753.0808715820314	402.1623840332032	-862.617614746094	-804.036071777344	186.5692138671875	-783.6765747070315	-833.345886230469	191.0007019042969	-816.691589355469	-874.7811279296877	240.4254455566407	-845.5551757812502	-265.0979309082032	618.3583984375001	-623.0960083007814	-198.7832946777344	608.3487548828126	-628.6697387695314	-178.3913269042969	633.3643188476564	-637.4875488281251	-163.2685089111328	532.2263793945314	-641.4098510742189	-120.3732223510742	433.1622924804689	-686.3600463867189	-103.2161941528321	450.6829528808595	-797.9653320312502	-174.794662475586	253.6890258789063	-742.5908813476564	-278.8732910156251	233.4950714111329	-722.0194702148439	-243.6408691406251	206.8226623535157	-736.6026611328126	-256.8779907226563	164.0900421142578	-777.0415649414065	-358.1608276367188	115.7761001586914	-751.7053833007814	-335.8609924316407	129.2116851806641	-840.5679321289065	-441.0350341796876	98.08960723876956	-798.7512207031252	-215.6233062744141	49.40164184570314	-812.8834228515627	-218.5641174316407	57.53172302246095	-766.7541503906251	-273.1503295898438	42.09425735473634	-714.2067871093751	nan	nan	nan	nan	nan	nan	
